<svg width="127" height="50" viewBox="0 0 127 50" xmlns="http://www.w3.org/2000/svg" xmlns:xlink="http://www.w3.org/1999/xlink">
    <defs>
        <path id="wxefc3y6ca" d="M0 0h34.823v49.161H0z"/>
    </defs>
    <g fill="none" fill-rule="evenodd">
        <g>
            <mask id="776mcxzhtb" fill="#fff">
                <use xlink:href="#wxefc3y6ca"/>
            </mask>
            <path d="m26.39 14.3-1.171.767c-.083.119-.278.266-.586.444-.308.177-.647.364-1.017.561-.37.198-.71.384-1.018.561-.308.177-.524.306-.647.384l-1.11.769c-.123.079-.308.187-.555.324-.246.139-.514.287-.801.444-.33.157-.659.335-.987.531H17.45l-.925-.413v-.827l.431-.887c.124-.078.309-.216.555-.413.247-.197.514-.404.802-.62.287-.217.555-.424.802-.621a8.57 8.57 0 0 0 .555-.473c.123-.118.348-.275.678-.473.328-.196.698-.403 1.11-.62.41-.216.78-.423 1.11-.62.328-.197.555-.335.678-.414.123 0 .308-.068.555-.207.246-.137.503-.285.77-.443.267-.157.534-.305.802-.443.267-.138.462-.207.586-.207l.863-.532.185-2.659v-3.9c0-.118.01-.295.03-.531.022-.237.033-.493.033-.768 0-.276.01-.541.031-.798.022-.256.032-.423.032-.502l.503-.946.817-.768h.566l.377.414.44.886c0 .276.062.552.188.827.042.158.105.316.19.473v2.127c0 .316.009.985.03 2.009.02 1.025.031 2.108.031 3.25 0 1.143.01 2.226.03 3.25.021 1.025.032 1.694.032 2.009v3.368c0 .236-.085.611-.253 1.122-.168.513-.252.867-.252 1.064l-.505.414-.568.472-.82-.472a8.079 8.079 0 0 1-.19-.71 6.173 6.173 0 0 1-.095-.56 3.807 3.807 0 0 1-.03-.444c0-.197-.042-.58-.124-1.152-.083-.57-.123-.955-.123-1.152l-.062-2.01c0-.118-.01-.245-.03-.383a2.909 2.909 0 0 1-.031-.444 1.855 1.855 0 0 1-.062-.472l-.802.413zM15.168 9.69l.432-.827.925-.827c.123 0 .308-.068.555-.207.246-.137.513-.305.801-.502.287-.197.555-.393.802-.591.247-.197.41-.354.493-.473l.925-.413c.287 0 .719-.138 1.295-.414.287-.157.595-.315.925-.473.246-.038.493-.097.74-.177a3.647 3.647 0 0 1 1.11-.236h.431c.205 0 .432.118.679.354l.308.296-.247.827-.678.532c-.206.197-.596.424-1.172.68-.576.256-.986.501-1.233.738-.123 0-.38.109-.77.325-.392.217-.802.463-1.234.738a22.79 22.79 0 0 1-1.233.739c-.391.217-.647.325-.77.325l-1.727.591-.987-.236-.37-.296V9.69zm1.279 36.517.308-.236c.082-.08.256-.306.524-.68.267-.375.463-.62.586-.738l.123-.178 1.11-1.3.617-.768 1.418-1.536.123-.473c0-.078.164-.236.494-.472.328-.237.493-.394.493-.473l.37-.65.37-.473.864-.945c-.206.08-.504.177-.895.295s-.627.177-.71.177l-.43.355c-.166.04-.33.08-.494.118-.165.04-.35.1-.555.177-.206.08-.432.158-.678.237-.042 0-.145.02-.308.059-.165.04-.34.07-.525.088-.185.021-.36.05-.524.089-.165.04-.268.06-.308.06h-1.603a.883.883 0 0 1-.37-.06.673.673 0 0 1-.185-.118c-.576-.355-.864-.748-.864-1.182 0-.078.041-.196.124-.354a.923.923 0 0 0 .123-.414l.124-.473 1.85-1.89c0-.079.163-.246.493-.503.328-.256.493-.422.493-.502l.801-.827.185-.178c.452-.55.987-1.22 1.604-2.008a162.01 162.01 0 0 0 1.727-2.246l-1.357.591-.986.354c-.083 0-.299.119-.647.355-.35.237-.586.354-.71.354-.082 0-.308.08-.678.237-.37.158-.781.325-1.233.502-.453.177-.874.345-1.264.503-.391.157-.607.236-.647.236h-1.604l-.308-.473-.247-.413v-.119c0-.157.072-.325.216-.502.144-.177.216-.325.216-.443l.123-.118c.082-.039.185-.098.309-.177.246-.158.41-.237.493-.237.164-.157.37-.295.617-.413.163-.079.308-.157.431-.237.04-.078.226-.187.555-.325a29.77 29.77 0 0 1 1.048-.414c.37-.137.73-.275 1.08-.413.348-.138.564-.246.647-.325.082 0 .236-.06.462-.177.226-.119.401-.178.524-.178.082 0 .298-.078.648-.236.348-.157.564-.236.647-.236.164 0 .37-.098.617-.296.247-.196.41-.295.493-.295.124 0 .349-.06.678-.178.33-.118.576-.177.742-.177l.371-.295.741-.178c.041 0 .134-.038.279-.118a8.35 8.35 0 0 0 .494-.295 5.02 5.02 0 0 1 .525-.295c.165-.079.288-.119.37-.119h1.546l.37.237.31.472v.591c0 .04-.022.08-.063.119a.673.673 0 0 0-.123.177.69.69 0 0 1-.123.177l-.371.59a3.832 3.832 0 0 0-.37.414 4.636 4.636 0 0 1-.556.65c-.043.04-.094.1-.156.178-.061.08-.134.158-.216.236a1.989 1.989 0 0 1-.247.296l-1.36 1.95-.617 1.063c-.083.08-.249.296-.495.65-.247.354-.453.591-.618.709l-.494.768-.617.532c-.083.08-.206.246-.37.502-.165.257-.308.424-.432.503h.247c.04 0 .144-.02.309-.06.163-.038.339-.078.524-.118.185-.039.359-.078.524-.118.164-.039.268-.059.309-.059l.68-.118.865-.355c.082 0 .329-.068.741-.207.413-.137.68-.206.804-.206.082 0 .215-.03.402-.089.184-.06.34-.089.463-.089h.277c.103 0 .217-.02.341-.059.164 0 .309-.019.433-.059h.494l.37.118.186.178c.082.079.133.158.154.236.02.08.073.158.155.236.041.119.103.217.185.296v.118c0 .316-.062.62-.185.916a2.162 2.162 0 0 1-.494.738 5.78 5.78 0 0 1-.372.591c-.164.237-.33.395-.493.473l-.371.355c-.083.158-.29.413-.618.768-.33.354-.67.729-1.02 1.122-.35.394-.68.769-.988 1.123-.31.355-.505.611-.587.768l-.742.887-.247.236a4.373 4.373 0 0 0-.433.502c-.165.217-.33.423-.493.62-.166.237-.351.493-.557.769l-.185.413.617-.236c.124-.04.421-.148.894-.325.472-.177.771-.266.895-.266l.863-.177c.123-.08.349-.177.678-.296.329-.118.678-.245 1.048-.384.37-.137.719-.255 1.049-.354.328-.098.554-.187.678-.266l.37-.236h.185c.123 0 .431-.079.925-.237.493-.157.842-.275 1.048-.354.163 0 .37-.079.616-.237.247-.157.41-.236.494-.236l.493-.236h.247c.081 0 .287.04.616.118.164.04.308.08.432.118l.308.177.124.414a.925.925 0 0 0-.062.295 1.252 1.252 0 0 0-.062.414c0 .118-.061.227-.185.325a4.202 4.202 0 0 1-.37.266c-.083.04-.237.128-.462.266-.227.137-.453.275-.678.413-.227.138-.443.266-.648.384-.206.119-.33.178-.37.178l-6.351 2.895-1.048.414c-.083 0-.299.118-.648.354-.35.236-.565.355-.647.355-.165 0-.36.068-.587.207-.226.137-.38.206-.462.206-.165 0-.514.108-1.048.325-.535.216-.947.325-1.234.325-.123 0-.298.03-.524.089a2.23 2.23 0 0 1-.462.088h-1.912c-.083 0-.206-.088-.37-.266-.164-.177-.246-.324-.246-.443a.632.632 0 0 1-.062-.295 1.252 1.252 0 0 1-.061-.414v-1.122l.123-.414zM3.885 22.69c0 .197.02.414.061.65.04.236.102.453.185.65.04.197.124.354.247.472.04.08.102.14.185.178l.801.118c.164 0 .503-.138 1.018-.414.513-.275.852-.531 1.017-.768a3.64 3.64 0 0 1 .432-.65c.082-.196.174-.384.277-.561.102-.177.154-.305.154-.384 0-.039.031-.157.093-.355.062-.196.143-.403.247-.62.102-.216.185-.423.246-.62a1.65 1.65 0 0 0 .093-.414c.04-.237.082-.453.123-.65.04-.197.071-.374.093-.532.02-.157.03-.275.03-.354 0-.079.01-.237.031-.473.02-.236.051-.473.093-.71.04-.274.102-.59.185-.945l.123-1.477-.678.65c-.37.355-.782.739-1.233 1.152a72.59 72.59 0 0 0-1.265 1.182l-.77.739-.494.827c-.123.198-.257.404-.4.62a2.89 2.89 0 0 1-.34.443l-.37.65c0 .158-.04.355-.123.591a1.065 1.065 0 0 0-.061.355v.65zm-2.097-2.246c.04-.236.102-.472.185-.709a6.86 6.86 0 0 0 .216-.59c.062-.197.133-.394.216-.591l.308-.65h-.617l-.74-.355-.493-.65c0-.157-.072-.472-.216-.945-.144-.473-.215-.807-.215-1.005 0-.038-.022-.186-.062-.443a18.756 18.756 0 0 0-.154-.827 13.02 13.02 0 0 1-.154-.886 5.255 5.255 0 0 1-.062-.68v-2.068a29.93 29.93 0 0 1 .123-1.89 31.987 31.987 0 0 0 .124-1.95V5.2c0-.157.061-.473.185-.946.123-.472.185-.787.185-.945l.246-.532.678-.472h.555l.617.472.247.237c0 .236.061.433.185.59l.246.355-.246 10.636.246 2.245.679-.886c.082-.079.215-.226.4-.443.185-.216.38-.444.586-.68.205-.236.4-.462.586-.68.185-.215.339-.363.462-.443l2.713-2.245.617-.473V9.81c0-.157.01-.482.03-.975.02-.492.041-1.024.062-1.596.02-.57.04-1.112.062-1.625.02-.511.03-.866.03-1.063V3.309c0-.157.062-.393.186-.71.04-.156.102-.333.185-.531 0-.197.133-.403.4-.62.268-.216.483-.325.648-.325h.74l.617.59c.04.119.082.257.123.414l.123.355a.96.96 0 0 1 .062.295V4.52c0 .572.01 1.163.03 1.773.02.611.032 1.182.032 1.713V9.1l1.233-.296.678.591v.71l-.617 1.417-1.418 1.182a50.38 50.38 0 0 0-.123 3.634c0 1.28-.247 2.728-.74 4.343-.123.434-.226.827-.308 1.182a8.895 8.895 0 0 0-.185.856 4.08 4.08 0 0 0-.062.503l-.678 1.181c0 .08-.072.198-.216.355-.145.158-.319.335-.524.532a13.1 13.1 0 0 1-.74.65l-1.603 1.182c-.288.079-.555.157-.802.236-.206.08-.411.138-.616.177-.207.04-.35.06-.432.06l-1.541-.237-.679-.296-.431-.413-.555-.71-.494-1.24c0-.079-.02-.216-.061-.414a9.365 9.365 0 0 0-.185-.709 5.459 5.459 0 0 1-.185-1.004l.308-2.128z" fill="#213567" mask="url(#776mcxzhtb)"/>
        </g>
        <path d="M60.011 21.164c0-.431-.03-.774-.091-1.03-.062-.254-.092-.597-.092-1.029l-.244-13.057c0-.156.05-.412.153-.765.1-.353.152-.588.152-.706 0-.078.01-.185.03-.323a.884.884 0 0 1 .153-.382 2.2 2.2 0 0 1 .183-.47l.549-.295h.976l.853.823c0 .08.01.285.03.618.021.334.071.697.153 1.088.081.432.162.922.244 1.47v7.235c0 .157-.03.48-.091.97-.061.491-.122 1.01-.183 1.56-.061.549-.113 1.068-.153 1.558-.04.49-.06.814-.06.97 0 .118-.041.344-.123.677-.082.333-.121.579-.121.735l-.366.588c0 .118-.122.256-.366.412a2.812 2.812 0 0 1-.305.176h-.732l-.122-.353-.427-.47zm-4.635 17.763-2.135 4.411-1.464 2.294-.548.53a3.586 3.586 0 0 0-.397.323c-.102.097-.193.147-.274.147h-.305c-.163 0-.366-.157-.61-.47a2.277 2.277 0 0 1-.305-.53l.427-1.588c0-.197.091-.48.274-.853.183-.372.275-.637.275-.794.04-.117.08-.254.122-.412.04-.117.08-.225.122-.323a.706.706 0 0 0 .06-.265c.082-.156.234-.42.458-.794l.671-1.117c.223-.373.416-.715.58-1.03.161-.313.243-.53.243-.647l2.562-5.352 1.098-2-2.44 1.53c-.082.078-.274.215-.58.411-.304.197-.64.403-1.006.618-.366.216-.701.422-1.006.617-.305.197-.498.334-.58.412a4.25 4.25 0 0 1-.548.176c-.326.118-.61.177-.854.177h-.732l-.67-.353-.367-.706v-.294c0-.196.07-.372.214-.53.142-.155.294-.332.457-.529.081-.078.356-.264.823-.558.467-.295.966-.598 1.495-.912a37.905 37.905 0 0 0 1.463-.912c.447-.294.711-.48.793-.558l.671-.354-.06-.352c0-.196-.031-.56-.092-1.088-.061-.53-.092-.892-.092-1.089l-.244-5.058.244-1.764c0-.157.081-.392.244-.706.081-.156.162-.274.244-.353l.67-.353h.61l.672.647c.04.118.08.256.122.412.04.117.08.235.122.353.04.117.06.216.06.294 0 .196.01.53.031 1 .02.47.03.784.03.94l-.06 5.941 1.525-.882 1.402-.647h1.464l.305.294.122 1.706a1.26 1.26 0 0 0-.183.412c-.082.314-.122.529-.122.647l-.366.646c-.082.197-.244.55-.488 1.06s-.498 1.058-.762 1.646l-.732 1.618c-.224.49-.377.814-.458.97l-.182.353c0 .275.142.608.426 1l.488.706c.203.157.478.53.824 1.117.345.588.579 1.04.701 1.353.284.432.65 1.03 1.098 1.794.447.765.894 1.54 1.341 2.323l1.19 2.088c.345.608.558.931.64.97l.427 1.06v.94l-.732.471h-.366c-.163 0-.366-.059-.61-.176a4.173 4.173 0 0 1-.426-.236l-.366-.294a3.328 3.328 0 0 1-.336-.412 11.858 11.858 0 0 0-.457-.588 16.893 16.893 0 0 1-.55-.705c-.081-.157-.295-.491-.64-1a66.008 66.008 0 0 0-2.44-3.353c-.426-.549-.721-.96-.883-1.235l-.305-.706-.55-.882-.487-.647zM39.03 25.34l.61.176 1.097-.235c.081 0 .284-.078.61-.235a1.63 1.63 0 0 0 .427-.294l1.525-1.47c.488-.824.843-1.539 1.067-2.147.223-.608.437-1.362.64-2.265l.123-1.059c.04-.273.08-.538.122-.794.04-.254.06-.42.06-.5l.062-1.294c-.326.236-.671.53-1.037.883-.204.196-.448.411-.732.647l-1.464 1.646-1.098 1.177a3.451 3.451 0 0 0-.366.47 55.398 55.398 0 0 0-1.036 1.56c-.163.255-.285.421-.366.499a1.636 1.636 0 0 0-.275.412 7.546 7.546 0 0 0-.274.588c-.122.235-.224.51-.305.823l.183 1.06.427.352zm-.915-6.529c.04-.078.183-.254.427-.53.244-.273.497-.567.762-.881.264-.314.508-.608.732-.883a7.37 7.37 0 0 1 .458-.529 137.532 137.532 0 0 1 2.5-2.294 132.925 132.925 0 0 0 2.5-2.294v-1.323c0-.608.01-1.244.031-1.912.02-.666.03-1.303.03-1.911V4.87c0-.548.062-.97.184-1.264.121-.294.183-.52.183-.676l.304-.647.244-.236h.915l.305.236.244.647c.203.588.356 1.215.458 1.882.1.667.152 1.274.152 1.823v2l1.769-1.118c.569-.195.915-.117 1.037.236V8.93l-.305.647c-.082.08-.225.206-.427.382a5.988 5.988 0 0 0-.61.618c-.204.235-.407.451-.61.647l-.427.411c0 .236-.03.658-.092 1.265-.06.609-.122 1.256-.182 1.941-.062.687-.123 1.344-.183 1.97a15.99 15.99 0 0 0-.092 1.294 7.559 7.559 0 0 0-.183.589c-.082.392-.122.667-.122.823 0 .08-.01.187-.03.324-.021.138-.031.264-.031.382-.04.157-.06.314-.06.47-.083.118-.164.305-.245.56-.082.255-.173.52-.274.793a7.94 7.94 0 0 0-.244.765c-.061.235-.092.392-.092.47-.204.275-.447.687-.732 1.235-.285.55-.508.883-.67 1-.244.275-.448.491-.61.647-.366.353-.671.609-.915.765a3.857 3.857 0 0 1-.58.559c-.224.176-.437.265-.64.265-.163.117-.407.226-.732.323-.326.098-.57.147-.732.147l-1.585.177-1.83-.294a547.09 547.09 0 0 1-.915-.53c-.407-.235-.61-.45-.61-.647a3.864 3.864 0 0 1-.366-.412c-.204-.274-.305-.49-.305-.647 0-.195-.03-.45-.091-.764a4.189 4.189 0 0 1-.092-.765c0-.118.05-.391.153-.823.1-.431.152-.725.152-.883 0-.117.112-.45.336-1 .223-.548.518-1.136.884-1.764l-.06.118-1.038.411-.854-.411a1.427 1.427 0 0 1-.183-.353c-.082-.235-.121-.412-.121-.53 0-.313-.021-.764-.062-1.353-.04-.588-.06-.98-.06-1.176v-.735c0-.45-.011-.98-.031-1.588a53.577 53.577 0 0 1-.03-1.853V6.401l.183-.883c.121-.156.263-.303.426-.44.162-.138.305-.207.427-.207l.61.236c.081.079.162.167.244.264.081.099.162.187.244.265.081.118.162.197.244.236.081.274.162.49.244.647.081.196.153.352.213.47a.676.676 0 0 1 .092.294c0 .235.01.54.03.912a362.385 362.385 0 0 0 .123 2.205c.02.353.03.609.03.765 0 .08-.01.314-.03.706-.021.392-.031.823-.031 1.294 0 .47-.01.902-.03 1.294-.022.392-.031.628-.031.706v3.94l.305-.294zM76.585 13.118l.25-.355a3.39 3.39 0 0 0 .251-.267c.084-.098.167-.148.251-.148.209 0 .48-.118.815-.355.167-.119.314-.237.44-.356.04 0 .208-.049.501-.148l.972-.326 1.066-.355c.354-.119.637-.217.846-.296.209-.04.397-.098.565-.178.417-.157.73-.237.94-.237.083 0 .23-.01.44-.03.208-.02.416-.049.626-.088.25-.04.523-.098.815-.178h2.697l2.759.118c.04 0 .166.04.376.119a10.847 10.847 0 0 1 1.38.652c.208.118.376.217.501.296.041.08.104.158.188.237.041.08.084.168.125.266.042.1.063.188.063.267v.533l-.439.474c-.21 0-.544.02-1.003.059-.46.04-.951.08-1.474.118-.523.04-1.013.08-1.473.119-.46.04-.795.06-1.003.06-.21 0-.586.05-1.13.147-.543.1-.92.148-1.128.148h-.439c-.084 0-.398.07-.94.208-.544.139-1.129.296-1.756.474-.627.177-1.234.335-1.818.473-.586.14-.983.208-1.192.208h-2.32l-.752-.77c-.042-.04-.063-.098-.063-.178-.042-.079-.063-.217-.063-.415l.126-.296zm-5.519 8.116c0-.197-.01-.563-.03-1.096-.022-.534-.043-1.096-.063-1.689l-.063-1.658a29.29 29.29 0 0 1-.032-1.067c0-.118.032-.374.095-.77.062-.394.146-.819.25-1.273.104-.454.188-.879.251-1.274a7.26 7.26 0 0 0 .094-.71l.063-1.185c.041-.356.104-.69.188-1.007l.25-.83c.084-.275.189-.512.315-.71 0-.198.062-.415.188-.652.083-.158.166-.296.25-.415 0-.078.041-.187.126-.325.083-.138.166-.306.25-.504.126-.197.251-.415.377-.652.125-.039.271-.078.439-.118.125-.039.24-.079.345-.119a.82.82 0 0 1 .282-.059h.752l.44.296.313.77v.711c0 .08-.063.385-.189.918-.125.534-.25 1.117-.376 1.748a65.76 65.76 0 0 1-.376 1.777c-.125.553-.188.889-.188 1.007a7.33 7.33 0 0 0-.188.948 6.775 6.775 0 0 0-.188 1.48c0 .199-.022.525-.063.978-.042.455-.084.918-.125 1.392a20.706 20.706 0 0 0-.189 1.837v1.125c0 .08-.021.218-.062.415a3.263 3.263 0 0 1-.188.592 4.338 4.338 0 0 0-.188.71l-.753.771h-.752l-.753-.71-.502-.652zm11.1 14.157c0-.236-.012-.69-.032-1.362-.022-.67-.053-1.43-.094-2.28a97.573 97.573 0 0 1-.094-2.637 72.059 72.059 0 0 0-.094-2.428 34.283 34.283 0 0 0-1.881.533 17.624 17.624 0 0 0-1.881.71l-.69.237-.314.178c-.125 0-.397.07-.815.207-.418.14-.857.277-1.317.415-.46.14-.888.277-1.285.415-.398.139-.638.207-.721.207a3.746 3.746 0 0 0-1.129.237c-.25.08-.502.158-.753.237h-.627c-.125.04-.292.06-.501.06a.591.591 0 0 0-.251.058 1.563 1.563 0 0 1-.376-.177c-.21-.119-.314-.276-.314-.474l-.376-.71.25-.653a2.699 2.699 0 0 1 1.35-1.007c.563-.197 1.117-.394 1.66-.592.084-.079.21-.157.377-.237.334-.157.585-.237.752-.237.167-.118.48-.266.941-.444.46-.178.94-.356 1.442-.533.502-.178.961-.335 1.38-.474.417-.138.668-.208.752-.208.083 0 .24-.038.47-.118.23-.079.47-.168.722-.266.25-.099.49-.188.72-.267.23-.079.409-.119.534-.119.166 0 .46-.078.878-.236.166-.08.354-.158.564-.237.25-.08.71-.198 1.38-.356a66.556 66.556 0 0 0 2.1-.533c.731-.197 1.42-.394 2.07-.593.647-.196 1.097-.355 1.347-.473.92-.197 1.819-.385 2.697-.563a24.302 24.302 0 0 1 2.633-.385h.69l.376-.06 1.066.238.44.355v.355l.062.356-.69.651-.69.415c-.084.04-.282.119-.595.237-.314.119-.649.247-1.003.385-.356.139-.712.258-1.066.356-.356.098-.618.148-.784.148l-1.819.533c-.084 0-.25.04-.501.118l-.847.267c-.314.099-.617.188-.909.266-.293.08-.481.119-.564.119l-1.067.533v10.84c0 .08.021.366.063.86.041.494.083 1.036.126 1.628.04.593.083 1.136.125 1.63.041.494.062.78.062.859v.71c0 .08-.02.207-.062.385-.042.178-.084.366-.125.563a2.928 2.928 0 0 0-.189.711l-.313.296h-.69a4.11 4.11 0 0 0-.439-.355 2.463 2.463 0 0 1-.376-.296l-.314-.297-.313-.651v-.356l-.376-1.362c0-.158-.063-.483-.188-.978-.126-.493-.188-.838-.188-1.036v-.297c0-.078-.022-.266-.063-.562a49.637 49.637 0 0 1-.126-.948 72.885 72.885 0 0 0-.125-.948 5.44 5.44 0 0 1-.062-.563zM122 16.702c-.082.079-.308.226-.678.44l-1.204.703c-.432.255-.844.509-1.235.763-.391.254-.669.46-.832.615l-.31.235c-.205.196-.545.44-1.018.733a48.11 48.11 0 0 1-1.48.879c-.516.293-1.01.557-1.482.791-.474.235-.793.392-.957.47h-.309l-.617.352h-.987l-.68-.645a.883.883 0 0 1-.184-.235.897.897 0 0 1-.124-.41v-.352c.164-.43.452-.762.864-.997.41-.234.781-.507 1.111-.82a62.43 62.43 0 0 1 1.698-.997c.884-.508 1.83-1.056 2.839-1.642a574.527 574.527 0 0 1 2.84-1.642 58.76 58.76 0 0 0 1.696-.996c.206-.118.39-.235.556-.352.37-.195.637-.41.802-.645l.618-.586v-2.17c0-.234.02-.537.061-.908l.124-1.144c.04-.39.081-.742.123-1.055a6.6 6.6 0 0 0 .062-.586c.04-.313.102-.587.185-.821.082-.195.144-.4.185-.616.04-.214.102-.36.185-.44 0-.117.062-.234.186-.351a.39.39 0 0 1 .185-.176h.679c.163 0 .37.04.617.117l.37.117.309.294.308.996c0 .079.02.245.062.499.04.254.082.547.124.879.04.333.081.655.123.967.04.314.061.548.061.704v.938c0 .157.01.49.031.997.02.508.032 1.055.032 1.641 0 .587.01 1.134.03 1.642.02.508.031.84.031.997l-.061 10.846c0 .157-.011.49-.032.997-.021.509-.03 1.055-.03 1.641 0 .587-.01 1.144-.031 1.672-.021.527-.03.87-.03 1.026v.586c0 .196-.022.45-.063.762-.042.313-.083.636-.123.967-.042.333-.083.636-.124.91-.041.273-.061.43-.061.468 0 .117-.022.235-.062.352a2.32 2.32 0 0 1-.124.293l-.123.352-.679.645-.802.469-.803-.293-.247-.352a.705.705 0 0 0-.061-.264 4.316 4.316 0 0 0-.124-.264l-.123-.351v-1.935c0-.156-.021-.47-.062-.938-.042-.47-.083-.977-.123-1.525-.042-.547-.083-1.055-.124-1.524a13.162 13.162 0 0 1-.061-.938V16.116l-.926.586zm-18.146 12.664c0-.078.01-.273.031-.586l.062-.997c.02-.352.04-.674.062-.967.02-.293.03-.478.03-.557v-.586c0-.156.032-.606.093-1.349.062-.742.144-1.544.247-2.404.102-.86.185-1.66.247-2.404a24.97 24.97 0 0 0 .092-1.348v-.88c0-.077.02-.322.062-.732.04-.41.082-.86.124-1.349.04-.488.082-.938.123-1.348.04-.41.062-.654.062-.733v-.528l-.679.235c-.247.078-.67.254-1.265.527-.597.274-1.225.577-1.883.909-.659.333-1.287.636-1.883.909-.596.274-1.018.43-1.265.469a2.005 2.005 0 0 1-.308.234 1.24 1.24 0 0 1-.618.176c-.123 0-.391.04-.802.118-.165.039-.35.078-.556.117l-.37-.117c-.247-.078-.412-.118-.494-.118l-.74-.645v-.82c0-.196.133-.411.401-.645.267-.235.463-.352.586-.352l11.172-5.218h1.543c.082.04.185.098.309.176.247.156.37.293.37.41l.123.352.124.352a.94.94 0 0 1 .062.293v.88c0 .234-.022.576-.062 1.025-.042.45-.072.92-.093 1.407-.021.49-.052.939-.092 1.349-.042.41-.062.694-.062.85 0 .235-.03.636-.093 1.202a33.615 33.615 0 0 1-.247 1.788 35.166 35.166 0 0 0-.247 1.759c-.06.548-.092.938-.092 1.173 0 .156-.041.468-.124.938-.082.469-.123.762-.123.88v.35c0 .235-.052.627-.154 1.173a76.068 76.068 0 0 0-.309 1.76c-.103.625-.206 1.221-.309 1.788-.103.567-.154.967-.154 1.202 0 .117-.041.351-.123.703-.083.352-.123.626-.123.82a1.401 1.401 0 0 0-.186.353c-.123.196-.185.372-.185.527l-.37.704a3.853 3.853 0 0 1-.37.41c-.207.274-.392.41-.556.41l-.247.177-.432-.235-.309-.586v-3.4z" fill="#213567"/>
    </g>
</svg>
